<svg viewBox="0 0 20 20" fill="none" xmlns="http://www.w3.org/2000/svg">
<path d="M17.1926 19.03C16.6075 20.0831 14.7595 19.9984 14.7595 19.9984C11.9768 19.459 10.9358 15.8263 10.9358 15.8263C1.65952 12.0294 0.344136 7.16869 0.344136 7.16869C0.317237 2.47206 1.70525 0 1.70525 0L6.5727 0.0121047C6.5727 0.0121047 6.87128 4.75178 4.88476 6.47469C4.88476 6.47469 10.812 11.6622 11.9405 13.6676C11.9405 13.6676 14.5578 13.5318 15.6391 13.4793C17.7992 13.3757 18.941 14.1652 15.6391 14.8579C15.6391 14.8579 17.4158 16.1854 19.0137 16.3253C19.3418 16.3548 19.4804 16.7624 19.2342 16.9816C19.171 17.0381 19.1038 17.0879 19.0352 17.1322C18.8859 17.338 18.7259 17.5061 18.5591 17.642L18.5631 17.646C18.1663 18.3979 17.6902 18.8215 17.1926 19.03Z" fill="white"/>
</svg>