<svg viewBox="0 0 20 15" fill="none" xmlns="http://www.w3.org/2000/svg">
<path d="M0.377758 3.04096C0.373067 3.06598 0.351173 3.1692 0.329279 3.27241C0.199482 3.88543 0.0884498 4.69393 0.0290242 5.45395C-0.00538001 5.87775 -0.0100715 6.95836 0.0196413 7.30709C0.113471 8.39239 0.302694 9.15084 0.648301 9.83267C0.840652 10.208 1.06272 10.5129 1.33795 10.7788C1.52248 10.9571 1.57252 10.9946 2.1183 11.373C4.14346 12.7758 5.55872 13.6015 6.8958 14.1567C8.45025 14.8025 9.84049 15.0183 11.029 14.7963C11.5795 14.6946 12.6085 14.4272 13.4091 14.1801C15.7877 13.4436 17.6065 12.5334 18.5166 11.6248C18.7918 11.3496 18.9232 11.1744 19.0624 10.8976C19.1703 10.6818 19.1734 10.6709 19.3752 9.60592C19.7161 7.80282 19.8787 6.70658 19.971 5.5947C20.0054 5.18654 20.0101 4.30454 19.9804 4.05432C19.9506 3.81506 19.8943 3.54452 19.8443 3.40534C19.8021 3.28961 19.652 3.00656 19.6394 3.01907C19.6348 3.0222 19.555 3.25677 19.4627 3.53982C18.8388 5.42737 18.3634 6.54863 18.0615 6.84576C17.8911 7.01309 17.6503 7.1726 17.3031 7.34619C16.7151 7.64019 15.93 7.9076 15.3749 8.00299C15.0355 8.06086 15.0856 8.07649 14.5773 7.75747C13.5264 7.10066 13.037 6.87078 12.4318 6.74724C12.1862 6.69876 11.7077 6.69876 11.4763 6.7488C10.9868 6.85358 10.5004 7.1163 10.2643 7.40092L10.1689 7.51664L10.0907 7.42438C10.0469 7.37433 9.94527 7.27112 9.86238 7.19606C9.73884 7.08346 9.68254 7.04593 9.54023 6.97712C9.13833 6.78477 8.7896 6.71283 8.27197 6.7144C7.92323 6.71596 7.75747 6.7316 7.41186 6.80041C6.54237 6.97243 5.52119 7.39936 4.58602 7.97954L4.3968 8.09839L4.29359 8.06398C3.95267 7.95139 3.39595 7.64175 2.82984 7.24923C2.33724 6.90831 1.44116 6.22179 1.36453 6.12483C1.19251 5.91059 0.873492 4.76899 0.585747 3.34435C0.551343 3.1692 0.518503 3.01907 0.513811 3.01125C0.50912 3.00499 0.479407 2.99874 0.446567 2.99874C0.393396 2.99874 0.385577 3.00343 0.377758 3.04096ZM11.126 7.97172C12.1769 8.05304 13.112 8.23444 14.0284 8.53626L14.2661 8.61445L14.2458 8.68013C14.0378 9.36665 13.6328 9.92494 13.1824 10.1454C12.9603 10.2533 12.8446 10.2784 12.5569 10.2768H12.3066L11.8453 10.1579C11.0556 9.95309 10.7022 9.89523 10.269 9.89523C9.87489 9.89523 9.62781 9.93901 9.13207 10.0907C8.64572 10.2393 8.28761 10.2815 7.89352 10.2377C7.19918 10.1611 6.66592 9.77168 6.3422 9.10706C6.25619 8.93191 6.15298 8.66762 6.15298 8.62227C6.15298 8.61132 6.2687 8.56597 6.43134 8.51437C7.37277 8.21255 8.4393 8.02332 9.55431 7.95608C9.84049 7.94044 10.8366 7.94982 11.126 7.97172Z" fill="white"/>
<path d="M8.32886 0.00665495C7.88663 0.0534054 7.4444 0.229035 6.96552 0.551234C6.69765 0.730655 6.45758 0.920183 5.94965 1.35231C5.41139 1.8097 5.16121 1.99671 4.83143 2.18244C4.45111 2.39851 4.16808 2.51475 3.83577 2.59309C3.70942 2.62215 3.66014 2.62721 3.50473 2.62721C3.34805 2.62721 3.31014 2.62341 3.24697 2.59941C3.13451 2.55771 3.07386 2.51728 2.99553 2.43262C2.87296 2.30122 2.806 2.11674 2.80473 1.91458C2.80347 1.76801 2.83379 1.68967 2.91971 1.61007C3.01953 1.51909 3.11556 1.48372 3.47946 1.40538C3.64624 1.37 3.7309 1.33462 3.79028 1.27397C3.86989 1.19437 3.84209 1.15141 3.65888 1.07433C3.45924 0.990941 3.28614 0.966934 3.1004 0.997258C2.7365 1.05664 2.45095 1.24238 2.21719 1.56837C1.89626 2.01819 1.82929 2.51854 2.0264 2.97847C2.39914 3.84651 3.80292 4.41888 5.77402 4.50607C6.80758 4.55155 8.11027 4.37466 8.77868 4.09921C9.02254 3.99939 9.15395 3.91979 9.45087 3.69362C9.5469 3.62034 9.74528 3.52178 9.8413 3.5003C9.94744 3.47503 10.0839 3.47124 10.1243 3.49272C10.1408 3.50156 10.2027 3.54452 10.2633 3.58875C11.2817 4.33296 13.4588 4.68422 15.344 4.40878C16.1829 4.28621 16.8829 4.04109 17.3656 3.69867C17.5147 3.5938 17.7421 3.36763 17.8306 3.23875C18.13 2.80031 18.1654 2.33786 17.9342 1.87667C17.8129 1.63534 17.6069 1.38642 17.3921 1.22469C17.2696 1.13119 17.0434 1.01621 16.9297 0.98715C16.6846 0.925238 16.471 0.966934 16.3143 1.10592C16.2486 1.16404 16.1779 1.2626 16.1779 1.29798C16.1779 1.34852 16.3421 1.40032 16.7161 1.47108C16.9259 1.51025 17.0194 1.54563 17.0977 1.61639C17.2241 1.73137 17.2481 1.93732 17.1558 2.12053C17.1179 2.19382 16.9739 2.34797 16.8513 2.44652C16.5885 2.655 16.2865 2.70049 15.9315 2.58172C15.8089 2.54129 15.584 2.42757 15.4564 2.34165C15.306 2.24057 14.807 1.86151 14.1815 1.37253C13.9136 1.16278 13.6053 0.927765 13.4967 0.849426C12.8485 0.388239 12.3203 0.140589 11.7745 0.0432972C11.633 0.0180267 11.5698 0.0142361 11.3196 0.0142361C11.0985 0.0142361 11 0.0192902 10.909 0.0369795C10.6184 0.0900476 10.3391 0.181021 10.0763 0.30611C9.88426 0.398348 9.86657 0.398348 9.696 0.30611C9.4395 0.168386 9.10467 0.0559324 8.84691 0.0205537C8.70287 0.000337321 8.45395 -0.0059803 8.32886 0.00665495Z" fill="white"/>
</svg>