<svg viewBox="0 0 18 21" fill="none" xmlns="http://www.w3.org/2000/svg">
<path d="M3.35165 2.25439L1.94814 3.65789L0.895508 6.11404V8.57018L2.29902 11.7281L3.35165 13.4825L4.0534 14.5351L3.35165 16.9912L11.0709 20.5L12.1236 17.3421H13.5271L15.2815 16.9912L15.9832 16.2895V15.2368L16.3341 14.5351V13.8333L16.685 13.1316V12.4298L17.3867 11.7281L17.7376 11.0263L17.0359 9.97368L16.3341 8.92105L15.9832 7.86842L16.3341 6.46491L15.6323 4.71053L14.9306 2.95614L13.5271 1.55263L12.4745 0.850877L10.7201 0.5H8.61481L6.86042 0.850877L5.10603 1.20175L3.35165 2.25439Z" fill="white"/>
<path opacity="0.69" d="M13.3167 16C14.4212 16 15.3167 15.1046 15.3167 14C15.3167 12.8954 14.4212 12 13.3167 12C12.2121 12 11.3167 12.8954 11.3167 14C11.3167 15.1046 12.2121 16 13.3167 16Z" fill="url(#paint0_radial_1078_4839)"/>
<path d="M14.2859 14.1383C14.3719 13.6082 14.0119 13.1086 13.4818 13.0226C12.9516 12.9365 12.4521 13.2965 12.366 13.8267C12.28 14.3568 12.64 14.8564 13.1701 14.9424C13.7003 15.0285 14.1998 14.6685 14.2859 14.1383Z" fill="#FF1806"/>
<defs>
<radialGradient id="paint0_radial_1078_4839" cx="0" cy="0" r="1" gradientUnits="userSpaceOnUse" gradientTransform="translate(13.3167 14) scale(2)">
<stop offset="0.48" stop-color="#ED1C24"/>
<stop offset="0.49" stop-color="#ED1C24"/>
<stop offset="1" stop-color="#FFD3AE"/>
</radialGradient>
</defs>
</svg>