<svg viewBox="0 0 30 30" fill="none" xmlns="http://www.w3.org/2000/svg">
<path d="M7.19179 0.842942C10.1863 0.0162047 12.9263 -0.205035 15.3482 0.190867C16.9852 0.41473 18.5173 1.1077 19.7505 2.18202C20.7247 3.11973 21.4531 4.27268 21.8741 5.54331L21.9696 5.80725C22.069 6.09447 22.1764 6.37782 22.2837 6.66504C22.51 7.24149 22.6986 7.83135 22.8484 8.43107C22.9877 9.00393 23.0026 9.59889 22.8922 10.1777C22.8445 10.4145 22.7888 10.6202 22.7331 10.8065C22.6411 11.0029 22.5978 11.2177 22.6068 11.4335C22.6158 11.6493 22.6768 11.86 22.7848 12.0485C23.1035 12.6768 23.4959 13.2669 23.954 13.8068C24.0176 13.8844 24.0932 13.9621 24.1687 14.0436C24.5664 14.4783 25.151 15.076 24.9641 15.8639C24.9056 16.1627 24.7733 16.443 24.5785 16.6804C24.3837 16.9179 24.1325 17.1053 23.8466 17.2263L23.7591 17.2574C23.6757 17.2815 23.5956 17.3154 23.5205 17.3583C23.5188 17.3738 23.5188 17.3894 23.5205 17.4049C23.5205 17.5679 23.5484 17.793 23.5683 17.9832C23.6199 18.4257 23.6518 18.6935 23.5046 18.907C23.3819 19.0675 23.2491 19.2205 23.1069 19.365C23.2655 19.5603 23.341 19.8077 23.3177 20.0559C23.2341 20.3381 23.0716 20.5921 22.8484 20.7894C22.7539 20.8902 22.6675 20.9979 22.59 21.1116C22.6196 21.2353 22.6568 21.3571 22.7013 21.4764C22.8553 21.8612 22.9348 22.2705 22.9359 22.6836C22.8604 23.7471 21.9934 24.4574 20.363 24.7912C19.4083 24.9604 18.4367 25.0203 17.4678 24.9697C17.265 24.9697 17.0224 24.9697 16.8713 24.9697C16.6997 25.3698 16.5704 25.786 16.4856 26.2118C16.4378 26.4252 16.3901 26.6387 16.3345 26.8289C16.0958 27.6828 15.6266 29.4333 15.6226 29.4333L15.4715 30L3.54109 24.4574L3.68425 24.0459C3.68425 24.0226 4.61085 21.329 3.90695 19.5241C3.50704 18.6694 3.02782 17.8522 2.4753 17.0827C1.37373 15.4331 0.180692 13.57 0.0335503 11.7536C-0.149383 9.12196 0.180692 2.78364 7.19179 0.842942ZM1.02775 11.6876C1.1391 13.2401 2.29635 15.0062 3.31839 16.5548C3.9074 17.3773 4.41601 18.2518 4.83752 19.167C5.49767 20.8515 5.01251 23.0484 4.75799 23.9334L14.8272 28.5911C14.9863 28.005 15.2249 27.0928 15.388 26.5456C15.4397 26.367 15.4834 26.1574 15.5272 25.9711C15.6312 25.3939 15.8201 24.8344 16.0879 24.3099C16.2509 24.0421 16.5134 23.9916 17.0185 23.9916H17.4837C18.3752 24.0419 19.2697 23.9885 20.1482 23.8325C21.8702 23.4792 21.9139 22.8233 21.9298 22.6098C21.9163 22.3237 21.8545 22.0418 21.7469 21.7753C21.6541 21.5524 21.5978 21.3166 21.5799 21.0767C21.6286 20.7192 21.8063 20.3903 22.0809 20.149C22.1406 20.083 22.2201 19.9899 22.2678 19.9239C22.215 19.8487 22.1506 19.7819 22.077 19.7259L21.6554 19.3999L22.0531 19.0118C22.2639 18.806 22.5064 18.5576 22.6218 18.4296C22.6218 18.3364 22.5979 18.1889 22.586 18.0841C22.5536 17.8564 22.535 17.627 22.5303 17.3971C22.5336 17.1463 22.625 16.9041 22.7894 16.7112C22.9537 16.5183 23.1809 16.3864 23.433 16.3375L23.5086 16.3103C23.6437 16.2476 23.761 16.1537 23.8504 16.0366C23.9398 15.9196 23.9986 15.7831 24.0216 15.6388C24.0892 15.3594 23.7591 15.01 23.4688 14.7034C23.3813 14.6103 23.2939 14.521 23.2183 14.4317C22.715 13.8345 22.2827 13.1834 21.9298 12.491C21.765 12.1961 21.6683 11.8696 21.6463 11.5344C21.6243 11.1992 21.6776 10.8633 21.8026 10.5503C21.8503 10.3873 21.902 10.2049 21.9417 9.99528C22.0289 9.55162 22.0167 9.09481 21.9059 8.65619C21.7593 8.09717 21.5774 7.54755 21.3611 7.01048C21.2458 6.7155 21.1344 6.42051 21.035 6.12164C21.0072 6.03625 20.9754 5.95474 20.9475 5.87323C20.5768 4.74842 19.936 3.72638 19.0784 2.89232C17.9833 1.95689 16.6337 1.35152 15.1931 1.14957C12.9184 0.761433 10.3215 0.994316 7.47414 1.78224C1.37373 3.46289 0.81698 8.71053 1.02775 11.6876Z" fill="white"/>
<path d="M16.5 21.5C14.5 23 14.7 24.7995 15.5 25.9995L16.5 24.5L21.5 23L22 20.4995L22 19.5C22 19.5 18.5 20 16.5 21.5Z" fill="white" stroke="white"/>
</svg>