<svg viewBox="0 0 28 20" fill="none" xmlns="http://www.w3.org/2000/svg">
<g filter="url(#filter0_d_789_3998)">
<path d="M10.3277 0.00999307C8.24383 0.118183 6.3356 0.692061 4.39289 1.79435C4.01344 2.01073 3.9272 2.06561 4.05577 2.00759C4.19062 1.94801 4.83035 1.75358 5.11415 1.68459C5.20039 1.6642 5.3666 1.62971 5.48263 1.60776C5.59866 1.58581 5.70842 1.56542 5.72566 1.56072C5.75859 1.55131 5.53594 1.56072 5.38855 1.57483L5.30231 1.58267L5.37287 1.55915C5.47792 1.52309 5.71782 1.47605 5.91696 1.45253C6.01417 1.44155 6.09884 1.42587 6.10511 1.4196C6.11295 1.41176 6.00006 1.41019 5.85424 1.41333C5.70998 1.4149 5.59239 1.41647 5.59239 1.4149C5.59239 1.39922 5.85737 1.33336 6.1255 1.28319C6.48613 1.21733 7.42691 1.05897 7.5649 1.04172C7.85967 1.00409 7.30932 1.03388 6.8154 1.08092C6.73387 1.08876 6.6492 1.09503 6.62725 1.09503L6.58805 1.09346L6.62725 1.08092C6.6492 1.07465 6.77307 1.03858 6.90164 1.00409C7.33127 0.884922 7.78441 0.836315 8.32066 0.850427C8.50568 0.855131 8.6515 0.856699 8.64209 0.853563C8.61701 0.844155 7.99138 0.798684 7.88163 0.798684C7.82675 0.798684 7.78598 0.795548 7.79068 0.790844C7.79382 0.78614 7.87065 0.767324 7.96159 0.750076C8.10898 0.718717 8.15602 0.717149 8.4461 0.726557C8.62328 0.731261 8.90238 0.745373 9.06545 0.759484C9.23008 0.772028 9.42765 0.784572 9.50448 0.789276C9.70518 0.800252 9.59072 0.781436 9.04977 0.710877C8.8083 0.681086 8.60917 0.652862 8.60603 0.651294C8.58721 0.632478 9.21127 0.596415 9.5672 0.594847C10.6083 0.594847 11.524 0.764188 12.515 1.14364C13.3021 1.44469 13.9732 1.80846 15.3562 2.68496C15.676 2.88879 16.0539 3.12399 16.1935 3.21023C16.3346 3.2949 16.5996 3.45797 16.7814 3.56929C17.8524 4.23098 18.7649 4.6998 19.5787 5.00242C20.4427 5.32385 21.3521 5.49947 22.2991 5.52926C22.6582 5.54023 22.8762 5.52142 23.1192 5.46184C23.5363 5.35992 23.784 5.16235 23.8906 4.85033C23.9079 4.80329 23.9377 4.74998 23.9565 4.7343C23.9769 4.71705 23.9847 4.70451 23.9753 4.70294C23.9675 4.70294 23.9518 4.71078 23.9439 4.71862C23.9126 4.74998 23.9392 4.55712 23.9706 4.52105C24.0098 4.47872 24.0098 4.4552 23.9706 4.48969C23.9408 4.51635 23.9392 4.51635 23.9345 4.46931C23.9298 4.4207 23.9298 4.4207 23.8216 4.54614C23.6539 4.74214 23.6445 4.73273 23.7574 4.48656C23.8812 4.22157 23.9047 4.13376 23.9173 3.89543C23.9267 3.69159 23.9157 3.67591 23.8687 3.83271C23.853 3.88446 23.8169 3.97069 23.7903 4.024L23.7417 4.12122V3.92209C23.7401 3.75275 23.7354 3.71041 23.7056 3.63515C23.6319 3.45013 23.4892 3.27138 23.3073 3.1381C23.2587 3.10204 23.2133 3.07224 23.2086 3.07224C23.2023 3.07224 23.2117 3.09576 23.2289 3.12242C23.287 3.2165 23.3262 3.36232 23.3262 3.48305C23.3262 3.60065 23.3152 3.66807 23.2964 3.66807C23.2901 3.66807 23.2666 3.62417 23.2431 3.56929C23.127 3.30274 22.8793 3.01737 22.6802 2.91858C22.5876 2.87311 22.4481 2.83078 22.4356 2.84489C22.4324 2.84802 22.4434 2.87154 22.4622 2.8982C22.481 2.92329 22.5061 2.97503 22.5202 3.01266C22.5406 3.07381 22.5406 3.08165 22.5187 3.0989C22.4826 3.12399 22.3791 3.09106 22.1518 2.98287C21.9291 2.87625 21.7613 2.80569 21.7331 2.80569C21.7174 2.80569 21.7221 2.82137 21.7456 2.86214C21.7707 2.90447 21.7754 2.92642 21.7629 2.94524C21.7362 2.98757 21.5747 2.96876 21.407 2.90447C21.28 2.85586 20.8503 2.7367 20.8394 2.74767C20.8362 2.75081 20.9225 2.78687 21.0307 2.82921C21.1388 2.87154 21.2314 2.91388 21.2361 2.92015C21.2408 2.92799 21.2314 2.93113 21.2157 2.92486C21.1984 2.92015 21.0902 2.90134 20.9742 2.88252C20.8394 2.86214 20.7359 2.83548 20.6904 2.81196C20.5556 2.74454 20.2859 2.64889 20.0914 2.60185C19.8406 2.53913 19.8437 2.53913 19.8547 2.55638C19.8594 2.56422 19.8719 2.57049 19.8813 2.57049C19.9064 2.57049 20.3172 2.73827 20.3345 2.75551C20.3423 2.76335 20.2874 2.75708 20.2137 2.73983C20.1275 2.72102 20.0224 2.68339 19.9205 2.63164C19.7339 2.53757 19.4642 2.44506 19.2212 2.39018C18.986 2.33687 18.9766 2.34157 19.171 2.41213C19.3843 2.48896 19.5865 2.5752 19.5693 2.58147C19.5615 2.58461 19.4407 2.55481 19.3012 2.51718C19.1067 2.46544 19.0268 2.43565 18.9625 2.39331C18.8229 2.3008 18.6301 2.21143 18.4294 2.14557C18.2428 2.08442 18.1174 2.06561 18.2694 2.12205C18.3526 2.15184 18.6411 2.30551 18.6332 2.31335C18.6191 2.32746 18.0907 2.13773 18.0421 2.1001C17.9229 2.00916 17.8179 1.95428 17.6125 1.87118C17.487 1.821 17.4682 1.82414 17.567 1.87902C17.6846 1.9433 17.7959 2.02797 17.7442 2.01386C17.6673 1.99191 17.4792 1.91038 17.3428 1.83825C17.048 1.68459 16.9602 1.64539 16.7328 1.56542C16.6043 1.51995 16.1166 1.34434 15.6509 1.17343C14.3072 0.684222 13.7114 0.488225 13.0716 0.328292C12.0195 0.0648721 11.1634 -0.0339102 10.3277 0.00999307Z" fill="white"/>
<path d="M13.2927 4.53055C13.2911 4.53525 13.2974 4.5619 13.3053 4.59013L13.3209 4.6403H13.114C12.7094 4.6403 11.4315 4.70459 11.3657 4.72654C11.3547 4.73125 11.339 4.7187 11.3312 4.69832C11.3171 4.66382 11.3171 4.66382 11.3171 4.69675C11.3155 4.72654 11.3029 4.73125 11.1869 4.74065C10.7275 4.77985 10.0439 4.87236 9.52957 4.96331L9.22538 5.01662L9.17991 4.96644L9.13287 4.9147L9.16737 4.96644C9.18618 4.99467 9.2003 5.01975 9.19716 5.02289C9.19402 5.02602 9.11406 5.04327 9.01841 5.06366C8.3285 5.20634 7.64957 5.43213 7.27482 5.64537C7.1243 5.73161 6.93928 5.90252 6.89067 6.0013C6.85774 6.06873 6.85461 6.09538 6.85618 6.29451C6.85774 6.52187 6.85461 6.50776 6.95182 6.81195C6.9628 6.84331 6.76994 6.71787 6.62255 6.59557C6.58178 6.56107 6.54572 6.53598 6.54258 6.53912C6.53317 6.54853 6.77778 6.7602 6.90478 6.85428C6.98161 6.9123 7.02709 6.95777 7.04904 7.00481C7.06785 7.04087 7.08196 7.0738 7.08196 7.0785C7.08196 7.09104 6.88283 7.00324 6.73701 6.92798C6.65548 6.88564 6.52847 6.80724 6.45477 6.75393C6.29641 6.64104 6.33247 6.68808 6.50965 6.82763C6.67429 6.9562 6.8499 7.06596 7.03022 7.14906C7.14468 7.20237 7.18231 7.22746 7.21524 7.27607C7.23719 7.31056 7.25287 7.33722 7.24974 7.33722C7.2466 7.33722 7.15879 7.29959 7.05374 7.25255C6.83736 7.1569 6.65861 7.05341 6.51436 6.94366C6.33718 6.80724 6.31993 6.7994 6.4391 6.91386C6.66959 7.13181 6.85931 7.26039 7.21681 7.43914C7.35322 7.50656 7.42221 7.55203 7.46612 7.60064C7.49905 7.6367 7.521 7.6712 7.51786 7.6759C7.50375 7.69001 7.23249 7.60534 7.03492 7.52537C6.72917 7.4015 6.40617 7.21021 6.18038 7.01892C6.01417 6.87937 6.00477 6.87466 6.13334 7.0001C6.28543 7.14906 6.4391 7.27293 6.62098 7.3921C6.82168 7.52537 7.24974 7.73235 7.40026 7.76841C7.49434 7.79193 7.42221 7.79193 7.28423 7.76841C6.79816 7.68531 6.31679 7.50499 5.91853 7.25725C5.73194 7.14122 5.78839 7.19453 6.00477 7.33878C6.24623 7.49872 6.6053 7.67433 6.87656 7.76684C7.07099 7.8327 7.13998 7.86092 7.07099 7.84681C7.05531 7.84367 6.99416 7.8327 6.93301 7.82329C6.64293 7.77468 6.18195 7.62416 5.8903 7.4799C5.80877 7.43914 5.67392 7.3623 5.59239 7.30743C5.51085 7.25411 5.46852 7.23059 5.49831 7.25725C5.56573 7.31683 5.98595 7.59907 6.18665 7.7198C6.79973 8.09141 7.5304 8.32504 8.07606 8.32504C8.17014 8.32504 8.21247 8.33131 8.22502 8.34699C8.2407 8.36581 8.21874 8.37678 8.09801 8.41755C8.01804 8.44421 7.94121 8.474 7.92867 8.48341C7.90985 8.49752 7.91142 8.49909 7.93651 8.48968C7.95376 8.48497 8.03686 8.45989 8.12153 8.4348L8.27519 8.38776L8.39122 8.48027C8.45551 8.53201 8.52293 8.58376 8.54332 8.59787C8.57467 8.61982 8.57624 8.62609 8.55586 8.6402C8.53704 8.65275 8.53861 8.65431 8.5637 8.64804C8.58565 8.64177 8.6421 8.67313 8.7597 8.7578C8.85064 8.82366 8.96824 8.90519 9.02311 8.93969L9.12033 9.00397L9.03095 9.05885C8.93844 9.11373 8.74402 9.26269 8.74402 9.2768C8.74402 9.2815 8.76754 9.26739 8.79576 9.24701C8.89141 9.17331 8.97137 9.12157 9.06231 9.0761L9.15326 9.02906L9.2489 9.08864L9.34455 9.14666L9.22225 9.20624C9.15482 9.2376 9.09681 9.26896 9.09054 9.27366C9.0827 9.28307 9.12033 9.26896 9.31162 9.19056L9.36964 9.16704L9.6111 9.30973C9.74281 9.38813 9.86355 9.45712 9.87766 9.46339C9.91686 9.4775 9.91059 9.49004 9.8416 9.52924C9.7679 9.57158 9.52643 9.77071 9.4496 9.85381C9.41354 9.89145 9.43706 9.8789 9.51232 9.81461C9.62992 9.71583 9.84787 9.56687 9.92156 9.53238C9.95763 9.5167 9.97801 9.5214 10.0893 9.57785C10.1599 9.61391 10.2179 9.64684 10.2179 9.65155C10.2179 9.65625 10.2022 9.6829 10.1834 9.70799C10.1395 9.77071 10.0454 9.98709 10.0454 10.0263C10.0454 10.0435 10.0627 10.0169 10.0831 9.96828C10.1238 9.86949 10.2038 9.73935 10.2461 9.70015C10.2712 9.6782 10.2853 9.6829 10.4186 9.74562C10.5237 9.79423 10.5613 9.81932 10.5535 9.83343C10.5472 9.84441 10.5237 9.88204 10.5001 9.91653C10.4468 9.99493 10.3324 10.2035 10.3543 10.1831C10.3622 10.1737 10.4061 10.1141 10.4515 10.0498C10.4954 9.98552 10.5488 9.91183 10.5691 9.88674C10.6115 9.835 10.6068 9.835 10.8169 9.93221L10.9078 9.97298L10.8576 10.0467C10.831 10.0874 10.7745 10.1627 10.7322 10.2144C10.6789 10.2787 10.7024 10.2584 10.8043 10.1533C10.936 10.0169 10.958 9.99964 10.9941 10.009L11.0348 10.02L10.958 10.1172C10.8388 10.2693 10.7291 10.4371 10.6507 10.5908C10.5597 10.7664 10.5566 10.804 10.646 10.6425C10.7244 10.4967 10.8686 10.2991 10.9988 10.158L11.0944 10.0545L11.3029 10.1376C11.4174 10.1847 11.5209 10.2223 11.5319 10.2223C11.5413 10.2223 11.5507 10.227 11.5507 10.2348C11.5507 10.2411 11.4911 10.3211 11.4174 10.4104C11.3437 10.5014 11.2841 10.5798 11.2841 10.5845C11.2841 10.5892 11.3594 10.5186 11.4503 10.4261L11.615 10.2584L11.7984 10.3211C11.8988 10.3556 11.9834 10.3854 11.9866 10.3869C11.9882 10.3885 11.9537 10.481 11.9098 10.5923C11.8188 10.8213 11.7812 10.9216 11.7922 10.9106C11.7969 10.9075 11.8533 10.7946 11.9192 10.6613C11.985 10.528 12.043 10.4151 12.0462 10.412C12.0571 10.401 12.5072 10.5422 12.5072 10.5563C12.5072 10.6127 12.2751 10.9075 12.1042 11.069C11.949 11.2164 11.9756 11.2054 12.1653 11.0439C12.2986 10.9294 12.4648 10.746 12.5354 10.6347C12.573 10.5735 12.6232 10.5484 12.6498 10.5751C12.6545 10.5782 12.6326 10.6347 12.6012 10.699C12.5432 10.8181 12.4444 11.0941 12.4444 11.1333C12.446 11.1458 12.4632 11.1113 12.4836 11.0564C12.5322 10.931 12.653 10.6974 12.6984 10.6409L12.7345 10.5986L12.954 10.6472C13.0748 10.6739 13.1751 10.6974 13.1782 10.7005C13.1814 10.7037 13.172 10.7287 13.1563 10.7585C13.1249 10.8181 13.0873 10.953 13.0889 10.9984C13.0889 11.0157 13.1014 10.9906 13.1171 10.9436C13.1532 10.8322 13.208 10.724 13.2347 10.7146C13.2535 10.7068 13.3554 10.7209 13.4981 10.7491L13.5389 10.757L13.5091 10.8699C13.4432 11.1035 13.3554 11.2697 13.2049 11.4453C13.1641 11.4923 13.1908 11.4704 13.2645 11.3951C13.3742 11.2822 13.4134 11.2289 13.4777 11.1019C13.5201 11.0157 13.5687 10.9059 13.5828 10.8573C13.6047 10.7883 13.6173 10.7711 13.6424 10.7711C13.6957 10.7726 13.9842 10.815 13.992 10.8244C14.0046 10.8369 13.9528 10.9749 13.9042 11.0659C13.8791 11.1098 13.8619 11.1474 13.865 11.1474C13.8776 11.1474 14.0077 10.9373 14.0328 10.8761C14.0579 10.8197 14.061 10.8181 14.1175 10.8275C14.1504 10.8322 14.2413 10.8416 14.3182 10.8463L14.4593 10.8573L14.4577 11.0063C14.4546 11.174 14.4216 11.2932 14.3401 11.4328C14.304 11.4955 14.2993 11.508 14.3229 11.4861C14.4091 11.4108 14.5298 11.0862 14.5298 10.931C14.5298 10.8652 14.5298 10.8652 14.5863 10.8652C14.6333 10.8652 14.6412 10.8699 14.6318 10.8918C14.6271 10.9075 14.6192 10.9545 14.6145 10.9984L14.6082 11.0768L14.6286 11.0063C14.6678 10.8683 14.6506 10.8761 14.9312 10.8793C15.0677 10.8808 15.1821 10.8855 15.1837 10.8871C15.1947 10.8981 15.1241 11.1348 15.088 11.2101C15.0661 11.2556 15.0488 11.2963 15.052 11.2979C15.0645 11.3105 15.1774 11.0894 15.2088 10.9906L15.2433 10.8808H15.3389H15.4346L15.4455 10.9937C15.4549 11.1019 15.5161 11.3089 15.5475 11.3403C15.5553 11.3481 15.549 11.3105 15.5302 11.2556C15.4894 11.1254 15.4722 10.8808 15.5035 10.8808C15.5616 10.8808 16.0351 10.8495 16.0884 10.8416L16.1496 10.8322L16.1401 10.9937C16.1354 11.0831 16.126 11.1693 16.1213 11.1866C16.1135 11.2101 16.1151 11.2117 16.126 11.1944C16.148 11.1615 16.1919 10.9561 16.1919 10.8902C16.1919 10.8307 16.1825 10.8354 16.3942 10.8087L16.4788 10.7993L16.471 10.9686C16.4647 11.0925 16.4522 11.174 16.4224 11.265C16.3989 11.3324 16.3832 11.392 16.3863 11.3951C16.3957 11.403 16.471 11.2054 16.4976 11.1019C16.5118 11.0486 16.5243 10.9577 16.5259 10.8981L16.529 10.7915L16.6701 10.7726C16.747 10.7617 16.9382 10.7287 17.0919 10.7005L17.3741 10.6472L17.4369 10.7037C17.5184 10.7742 17.6376 10.9467 17.6799 11.0564C17.7003 11.1035 17.7097 11.1192 17.705 11.0925C17.6893 11.0078 17.5733 10.793 17.5011 10.7115L17.4306 10.6331L17.567 10.6017C17.8273 10.5422 17.8069 10.5406 17.8665 10.6253C17.8963 10.666 17.9292 10.7146 17.9417 10.7319L17.9637 10.7632L17.9527 10.7319C17.9465 10.7146 17.9214 10.666 17.8978 10.6237C17.8728 10.5814 17.8555 10.5453 17.8586 10.5406C17.8618 10.5375 17.9261 10.5186 18.0013 10.4967L18.1377 10.4606L18.1801 10.528C18.2553 10.6472 18.2632 10.6582 18.2397 10.5986C18.2287 10.5688 18.2099 10.5249 18.1989 10.4998C18.1879 10.4763 18.1816 10.4559 18.1848 10.4528C18.1879 10.4496 18.2945 10.4199 18.4215 10.3854C18.6709 10.3164 18.6599 10.3164 18.7712 10.3979L18.8339 10.4449L18.7649 10.3807C18.7273 10.3446 18.6991 10.3132 18.7022 10.3101C18.7148 10.2991 19.4235 10.1125 19.654 10.0577C19.9738 9.98396 20.2216 9.94476 20.5117 9.9228C20.797 9.90085 20.993 9.9181 21.2658 9.98866C21.4744 10.042 21.5544 10.0467 21.592 10.0043C21.6704 9.9181 21.6547 9.76758 21.5152 9.30502C21.3976 8.91617 21.3427 8.7578 21.2376 8.50692C20.7155 7.25568 19.8751 6.32587 18.6803 5.68144C18.0985 5.36784 17.4337 5.12794 16.6435 4.94763C16.6058 4.93979 16.6011 4.92881 16.5949 4.86296L16.5902 4.78926L16.587 4.86452C16.5839 4.93195 16.5807 4.93979 16.5525 4.93038C16.5353 4.92567 16.5023 4.91783 16.4788 4.91313C16.4537 4.90843 16.344 4.88804 16.2311 4.86766C16.1198 4.84728 15.941 4.81905 15.836 4.80337L15.6431 4.77672L15.64 4.71243L15.6384 4.64814L15.6321 4.70929L15.6259 4.76888L15.4973 4.7579C15.4267 4.7532 15.3656 4.74065 15.364 4.73281C15.3609 4.72497 15.3515 4.72341 15.342 4.72811C15.3342 4.73281 15.2636 4.73281 15.1868 4.72654L15.0473 4.71557L15.0285 4.64971C15.0049 4.56347 14.983 4.53995 15.0034 4.62306C15.0128 4.65912 15.0159 4.69205 15.0112 4.69675C15.0065 4.70302 14.9124 4.69989 14.8011 4.69361L14.6004 4.6795L14.591 4.63246L14.58 4.58542L14.5784 4.62933L14.5769 4.67323L14.2366 4.66382C14.0485 4.65755 13.887 4.65128 13.876 4.64814C13.8666 4.64501 13.854 4.61522 13.8509 4.58229L13.8446 4.52271L13.8431 4.58072L13.8399 4.6403H13.5906H13.3429L13.3178 4.58072C13.3053 4.54936 13.2943 4.52584 13.2927 4.53055Z" fill="white"/>
<path d="M7.85049 8.51313C7.83795 8.52097 7.83481 8.52881 7.84265 8.52881C7.85206 8.52881 7.86931 8.52097 7.88185 8.51313C7.8944 8.50529 7.8991 8.49745 7.88969 8.49745C7.88185 8.49745 7.86304 8.50529 7.85049 8.51313Z" fill="white"/>
</g>
<defs>
<filter id="filter0_d_789_3998" x="0" y="0" width="28" height="19.4961" filterUnits="userSpaceOnUse" color-interpolation-filters="sRGB">
<feFlood flood-opacity="0" result="BackgroundImageFix"/>
<feColorMatrix in="SourceAlpha" type="matrix" values="0 0 0 0 0 0 0 0 0 0 0 0 0 0 0 0 0 0 127 0" result="hardAlpha"/>
<feOffset dy="4"/>
<feGaussianBlur stdDeviation="2"/>
<feComposite in2="hardAlpha" operator="out"/>
<feColorMatrix type="matrix" values="0 0 0 0 0 0 0 0 0 0 0 0 0 0 0 0 0 0 0.25 0"/>
<feBlend mode="normal" in2="BackgroundImageFix" result="effect1_dropShadow_789_3998"/>
<feBlend mode="normal" in="SourceGraphic" in2="effect1_dropShadow_789_3998" result="shape"/>
</filter>
</defs>
</svg>