<svg viewBox="0 0 21 13" fill="none" xmlns="http://www.w3.org/2000/svg">
<path d="M18.8878 6.57056C17.7572 4.8141 16.3394 3.50059 14.6344 2.63C15.0887 3.4044 15.3159 4.24165 15.3159 5.14179C15.3159 6.51819 14.8268 7.69598 13.8485 8.67517C12.8703 9.65437 11.6925 10.1435 10.3152 10.1425C8.93784 10.1416 7.76003 9.65247 6.78182 8.67517C5.80359 7.6979 5.31447 6.52009 5.31447 5.14179C5.31447 4.24167 5.54167 3.4044 5.99597 2.63C4.29193 3.50059 2.8741 4.81412 1.74251 6.57056C2.73218 8.09647 3.97279 9.31143 5.46447 10.2154C6.9561 11.1193 8.57297 11.5713 10.3151 11.5713C12.0573 11.5713 13.6742 11.1193 15.1658 10.2154C16.6575 9.31143 17.8982 8.09647 18.8878 6.57056ZM10.851 2.28425C10.851 2.13566 10.799 2.00898 10.6953 1.90421C10.5914 1.79943 10.4647 1.74752 10.3152 1.74846C9.38461 1.74846 8.58639 2.08138 7.92058 2.74718C7.25476 3.41298 6.92187 4.21119 6.92187 5.14179C6.92187 5.2904 6.97377 5.41706 7.07761 5.52185C7.18145 5.62661 7.30813 5.67858 7.45765 5.67762C7.60717 5.67666 7.73385 5.62469 7.83769 5.52185C7.9415 5.41898 7.99343 5.29228 7.99343 5.14179C7.99343 4.50169 8.22063 3.95497 8.67496 3.50156C9.12929 3.04814 9.67605 2.82099 10.3152 2.82003C10.4638 2.82003 10.5905 2.76812 10.6952 2.66431C10.8001 2.56047 10.8519 2.43379 10.851 2.28425ZM20.3166 6.57056C20.3166 6.82391 20.2424 7.08062 20.0938 7.34063C19.0517 9.0523 17.6511 10.4235 15.8917 11.4541C14.1324 12.4847 12.2741 13 10.3166 13C8.35921 13 6.50081 12.4828 4.74154 11.4484C2.98227 10.414 1.58159 9.04475 0.539546 7.34068C0.390941 7.08064 0.31665 6.82394 0.31665 6.57058C0.31665 6.31722 0.390941 6.06052 0.539546 5.80048C1.58159 4.09641 2.98227 2.72718 4.74159 1.69276C6.50086 0.658312 8.35923 0.141113 10.3167 0.141113C12.2741 0.141113 14.1325 0.658335 15.8918 1.69276C17.6511 2.72718 19.0517 4.09641 20.0938 5.80048C20.2424 6.0605 20.3166 6.3172 20.3166 6.57056Z" fill="white"/>
</svg>