<svg viewBox="0 0 20 15" fill="none" xmlns="http://www.w3.org/2000/svg">
<path d="M19.9931 10.0067C19.8128 9.90384 19.775 9.75551 19.7327 9.66862C19.6494 9.49805 19.7265 9.14689 19.7063 9.06654C19.6315 8.77067 19.5356 8.4857 19.4475 8.19358C19.277 7.62818 19.1511 7.05112 19.0023 6.47988C18.838 5.84918 18.5642 5.3634 18.1753 4.83925C17.8009 4.33456 17.4754 3.77073 17.0707 3.29312C16.227 2.29734 15.2648 1.68719 13.9681 1.46271C13.415 1.36698 12.8815 1.21202 12.3259 1.21168C12.356 1.19753 12.387 1.18494 12.4167 1.17045C12.7346 1.01549 13.1898 0.885841 13.416 0.60021C13.4204 0.594584 13.5425 0.402027 13.5425 0.402027C13.5227 0.377045 12.2444 0.624969 11.8734 0.660556C11.2514 0.72003 10.6197 0.77196 9.99499 0.783346C9.44417 0.793414 8.8917 0.780577 8.34286 0.732287C8.39325 0.701657 8.44581 0.671718 8.50357 0.641311C8.82377 0.473759 9.18998 0.448442 9.50335 0.290266C9.52871 0.277675 9.53069 0.232555 9.50335 0.220521C9.45728 0.200071 9.39621 0.189132 9.32621 0.185047C8.75048 -0.0699543 8.08606 0.0127165 7.47083 0.0130514C6.83425 0.0134979 6.31061 0.351393 5.78927 0.671718C5.28398 0.982198 4.96135 1.45474 4.63417 1.93442C4.45319 2.19971 4.17744 2.67223 4.18305 3.06538C3.88743 2.72307 3.85407 2.22059 3.77388 1.79647C3.76678 1.75879 3.70548 1.75879 3.69831 1.79647C3.6054 2.28857 3.63455 2.77125 3.90103 3.20896C3.90697 3.2188 3.91448 3.2305 3.92105 3.24113C3.7141 3.14685 3.50653 3.05808 3.30579 2.97275C2.93184 2.81369 2.21887 2.62943 1.86658 2.92732C1.81742 2.96878 1.86983 3.06449 1.93112 3.03875C2.32387 2.8735 2.95219 3.2503 3.30508 3.38957C3.36884 3.41478 3.43167 3.44273 3.49346 3.47269C3.17247 3.54652 2.86636 3.65428 2.56339 3.79377C2.38819 3.87423 2.22212 3.97316 2.05919 4.07608C1.87655 4.28466 1.61272 4.43884 1.4025 4.61117C1.21483 4.76502 1.02915 4.92563 0.863034 5.10369C0.795461 5.20936 0.699168 5.2779 0.640747 5.3839C0.552335 5.54473 0.482514 5.78015 0.342315 5.90605C0.33735 5.91047 0.332118 5.91643 0.327108 5.92174C0.13795 6.33999 0.0482246 6.76399 0 7.21751C0.070489 7.24325 0.519005 6.69458 0.721232 6.5573C0.730539 6.551 0.74107 6.54426 0.751111 6.53763C0.642639 6.81837 0.582503 7.1218 0.549552 7.39636C0.454861 8.18456 0.46871 8.91605 0.604166 9.69929C0.729559 10.4234 1.05384 11.2209 1.4664 11.8273C1.58191 11.997 1.66949 12.1943 1.7563 12.3932C1.86351 12.5717 1.97071 12.7499 2.07967 12.9284C2.14591 13.0367 2.21228 13.1447 2.27914 13.2521C2.31563 13.2846 2.35359 13.3157 2.39509 13.3431C2.41802 13.3965 2.44276 13.4492 2.47005 13.5008C2.50565 13.5679 2.53818 13.6358 2.56877 13.7043C2.71151 13.92 2.85995 14.1307 3.01785 14.3333C3.01669 14.3244 3.01598 14.3154 3.01471 14.3066C3.0481 13.8843 3.02281 13.4489 2.92278 13.0474C2.89969 12.9551 2.88348 12.8618 2.86977 12.7682C2.89248 12.319 2.88833 11.8632 2.87727 11.4133C2.89359 11.2419 2.90704 11.1138 2.91129 11.0665C2.94809 10.6515 2.99616 10.2463 3.10341 9.84318C3.12743 9.75309 3.15417 9.67362 3.17699 9.59747C3.195 9.55514 3.21248 9.51269 3.2288 9.46981C3.45968 8.86231 3.77234 8.23925 4.22268 7.76198C4.23571 7.74816 4.23916 7.72726 4.23531 7.70849C4.37404 7.5281 4.51931 7.35235 4.67748 7.19541C4.72112 7.15683 4.76489 7.11836 4.80861 7.07978C4.81952 7.09094 4.83037 7.10211 4.84119 7.11307C5.31428 7.59001 5.86268 7.99798 6.39996 8.39678C6.87626 8.75015 7.47273 8.92158 8.02597 9.10892C8.49317 9.26698 8.85706 9.4016 9.31054 9.29739C9.31207 9.29739 9.31363 9.29761 9.31528 9.29761C9.33182 9.29761 9.34549 9.29241 9.35794 9.28524C9.40269 9.27363 8.31098 9.04007 8.20317 8.4315C8.47433 8.54513 8.75046 8.63113 9.02384 8.68174C9.63551 8.79504 10.2905 8.72175 10.9087 8.71313C11.5012 8.70507 12.1573 8.63941 12.7083 8.41348C12.7262 8.40607 12.7264 8.37358 12.7032 8.37611C12.5061 8.39745 10.2078 8.5669 9.35208 8.32295C9.23161 8.28857 8.81593 8.14687 8.6939 8.12035C8.99251 8.11736 9.57983 8.23695 9.87632 8.18391C10.2051 8.1251 10.624 8.03149 10.9589 8.03149C11.2832 8.03149 11.5698 7.85088 11.8864 7.78998C12.7011 7.63334 13.5469 7.41859 14.3803 7.3956C15.166 7.37383 15.7671 7.91366 16.3144 8.40674C16.8636 8.90149 17.2422 9.4674 17.3952 10.205C17.5483 10.9439 17.5214 11.6771 17.5221 12.4314C17.5222 12.5086 17.5134 12.5866 17.5014 12.6651C17.5774 13.1846 17.6744 13.7322 17.5791 14.2205C17.6711 14.1197 17.832 14.0609 17.893 13.9508C18.0247 13.7124 18.2302 13.4763 18.4014 13.2681C18.5417 13.0975 18.686 12.8466 18.7719 12.643C18.8723 12.4052 18.9106 12.0663 19.0313 11.8481C19.2529 11.4467 19.2377 10.9101 19.3213 10.4623C19.3594 10.2574 19.3883 10.0394 19.4056 9.81793C19.5423 9.91984 19.6936 9.99423 19.848 10.0055C19.8986 10.0092 20.0315 10.0287 19.9931 10.0067ZM3.5334 8.17554C3.47013 8.24805 3.40278 8.32442 3.3342 8.40312C3.38784 8.30045 3.47562 8.20373 3.57637 8.11341C3.56183 8.13388 3.54734 8.15433 3.5334 8.17554Z" fill="white"/>
</svg>