<svg viewBox="0 0 21 20" fill="none" xmlns="http://www.w3.org/2000/svg">
<path d="M11.9212 14.0902C12.4847 14.324 13.0499 14.5593 13.5987 14.8331L6.84424 15.2255C7.33879 14.9646 7.72341 14.8525 8.22454 14.6124C8.25247 14.5996 8.28205 14.5868 8.30998 14.5756C8.61558 14.4347 7.43734 13.0002 7.40119 12.6928C7.37326 12.4591 7.26318 11.3144 7.21224 10.7509C7.12516 10.626 7.03315 10.4996 6.94936 10.3715C6.75384 10.0673 6.6684 9.72953 6.64704 9.37093C6.64211 9.26847 6.63225 9.16441 6.61089 9.06355C6.32994 9.12599 6.01776 9.1388 5.87646 8.94028C5.78938 8.81701 5.7598 8.67613 5.68751 8.54166C5.61357 8.40238 5.48377 8.29031 5.38191 8.17184C5.16667 7.9189 5.11573 7.5635 5.11245 7.2273C5.10916 6.92473 5.0533 6.20752 5.46406 6.12908C5.55935 6.11147 5.68751 6.19311 5.79924 6.28437C5.78445 6.24755 5.76966 6.21233 5.75487 6.17551C5.66451 5.88574 5.55935 5.59918 5.52321 5.2982C5.10423 1.85784 7.96311 -0.508308 11.3823 0.0936349C12.8183 0.346579 13.9668 1.20947 14.5862 2.35092C15.0659 3.23623 15.2319 4.28803 14.9674 5.35263C14.8934 5.6488 14.9 5.95138 14.8606 6.25075C14.8589 6.25555 14.8589 6.26035 14.8589 6.26516C14.9641 6.18191 15.0807 6.11307 15.1694 6.12908C15.5802 6.20752 15.5227 6.92473 15.5211 7.2273C15.5161 7.5635 15.4668 7.9205 15.25 8.17184C15.1464 8.29031 15.0183 8.40077 14.9444 8.54166C14.8721 8.67613 14.8425 8.81701 14.7554 8.94028C14.6388 9.10358 14.4038 9.12279 14.1688 9.08917C14.1393 9.29408 14.1081 9.4974 14.0768 9.70072C14.0325 9.99048 13.9125 10.2498 13.7548 10.4964L13.7252 10.5348C13.7269 10.5412 13.7302 10.546 13.7302 10.554C13.7302 10.5908 13.4886 12.372 13.5987 13.4894C13.6184 13.6847 11.7224 14.007 11.9212 14.0902Z" fill="white"/>
<path d="M20.1951 19.6445C20.2037 19.8268 20.0648 19.9917 19.8826 20.0004H0.75087C0.568581 19.9831 0.429693 19.8268 0.438374 19.6358L0.455735 19.3494C0.533859 18.1168 0.568581 17.5786 1.65364 16.5282C2.34807 15.8598 3.25084 15.6776 4.16228 15.4866C5.48171 15.2088 6.80982 14.931 7.2178 13.004C7.26988 12.7957 7.29592 12.57 7.3046 12.3269C7.32196 12.0925 7.31328 11.8321 7.29592 11.563C7.29592 11.5196 7.29592 11.4762 7.31328 11.4328C6.4192 10.7558 7.0438 9.69681 6.41881 8.33398C6.18444 7.80447 6.01083 7.35309 5.8893 6.86698L5.64625 5.25242L6.32333 5.20902C6.35805 5.79061 6.42749 6.25935 6.54034 6.70205C6.65318 7.14476 6.80943 7.5701 7.03512 8.0562C7.799 9.73153 7.40877 10.8686 8.52854 11.3981C9.07541 11.6585 9.64832 11.7887 10.2125 11.7887C10.7768 11.7887 11.3497 11.6672 11.9052 11.4068C13.1205 10.8599 10.8372 9.89646 11.6618 8.16905C11.8875 7.69162 12.0524 7.29232 12.1566 6.86698L12.3302 5.43471H12.9986C12.9986 6.06838 12.9291 6.56317 12.8076 7.03191C12.6861 7.50065 12.5125 7.94336 12.2694 8.4555C11.6358 9.79229 14.2229 10.6255 13.3201 11.3287C13.3375 11.3721 13.3462 11.4155 13.3375 11.4675C13.3201 11.7366 13.3115 11.9971 13.3288 12.2314C13.3375 12.4745 13.3635 12.7002 13.4156 12.9085C13.8236 14.8356 15.1604 15.1133 16.4711 15.3824C17.3826 15.5734 18.2854 15.7644 18.9798 16.4328C20.0648 17.4744 20.0996 18.1081 20.1777 19.332L20.1951 19.6445Z" fill="white"/>
<path opacity="0.69" d="M10.3167 16C11.4212 16 12.3167 15.1046 12.3167 14C12.3167 12.8954 11.4212 12 10.3167 12C9.21208 12 8.31665 12.8954 8.31665 14C8.31665 15.1046 9.21208 16 10.3167 16Z" fill="url(#paint0_radial_1078_4828)"/>
<path d="M11.2859 14.1383C11.3719 13.6082 11.0119 13.1086 10.4818 13.0226C9.95162 12.9365 9.45208 13.2965 9.36602 13.8267C9.27997 14.3568 9.63998 14.8564 10.1701 14.9424C10.7003 15.0285 11.1998 14.6685 11.2859 14.1383Z" fill="#FF1806"/>
<defs>
<radialGradient id="paint0_radial_1078_4828" cx="0" cy="0" r="1" gradientUnits="userSpaceOnUse" gradientTransform="translate(10.3167 14) scale(2)">
<stop offset="0.48" stop-color="#ED1C24"/>
<stop offset="0.49" stop-color="#ED1C24"/>
<stop offset="1" stop-color="#FFD3AE"/>
</radialGradient>
</defs>
</svg>