<svg viewBox="0 0 16 20" fill="none" xmlns="http://www.w3.org/2000/svg">
<path d="M13.4697 11.2476C13.4697 11.2476 11.7992 0 8.31656 0C4.8339 0 3.16335 11.2476 3.16335 11.2476C1.74124 11.7493 0.721924 13.1043 0.721924 14.6985C0.721924 16.7163 2.35524 18.3527 4.37185 18.3569C5.25012 19.3518 6.68995 20 8.31652 20C9.94308 20 11.383 19.3518 12.2612 18.3569C14.2778 18.3527 15.9111 16.7163 15.9111 14.6985C15.9111 13.1043 14.8918 11.7492 13.4697 11.2476Z" fill="white"/>
<path opacity="0.2" d="M13.4697 11.2476C13.4697 11.2476 11.7992 0 8.31654 0C8.02599 0 7.74829 0.0787518 7.4834 0.222193C10.3991 1.79813 11.8028 11.2476 11.8028 11.2476C13.2249 11.7493 14.2449 13.1043 14.2449 14.6985C14.2449 16.7163 12.6109 18.3527 10.5944 18.3569C9.86928 19.1779 8.7621 19.7626 7.4834 19.942C7.75943 19.9807 8.03782 20 8.31654 20C9.9431 20 11.383 19.3518 12.2612 18.3569C14.2779 18.3527 15.9111 16.7163 15.9111 14.6985C15.9111 13.1043 14.8918 11.7492 13.4697 11.2476Z" fill="#020202" fill-opacity="0.4"/>
</svg>