<svg viewBox="0 0 13 20" fill="none" xmlns="http://www.w3.org/2000/svg">
<path d="M12.3962 2.01636H0.599531C0.499219 2.01636 0.417969 2.09761 0.417969 2.19792V19.8189C0.417969 19.9189 0.499219 20.0001 0.599531 20.0001H5.1732C5.26758 20.0001 5.34602 19.9283 5.35414 19.8342L6.31723 8.61284C6.32508 8.51909 6.40379 8.4469 6.49785 8.4469C6.59191 8.4469 6.67066 8.51909 6.67844 8.61284L7.64156 19.8342C7.64969 19.9283 7.72812 20.0001 7.8225 20.0001H12.3962C12.4965 20.0001 12.5777 19.9189 12.5777 19.8189V2.19792C12.5778 2.09761 12.4966 2.01636 12.3962 2.01636Z" fill="white"/>
<path d="M7.69781 0H5.29785V1.56813H7.69781V0Z" fill="white"/>
<path d="M4.6257 0H0.417969V1.56813H4.6257V0Z" fill="white"/>
<path d="M12.5779 0H8.30615V1.56813H12.5779V0Z" fill="white"/>
</svg>