<svg fill="white" xmlns="http://www.w3.org/2000/svg" viewBox="0 0 448 512"><!--!Font Awesome Free 6.6.0 by @fontawesome - https://fontawesome.com License - https://fontawesome.com/license/free Copyright 2024 Fonticons, Inc.--><path d="M437.3 239.9 384 160V32A32 32 0 0 0 352 0H320a24 24 0 0 0 -13.3 4l-25 16.7a103.8 103.8 0 0 1 -115.4 0l-25-16.7A24 24 0 0 0 128 0H96A32 32 0 0 0 64 32V160L10.7 239.9A64 64 0 0 0 0 275.4V480a32 32 0 0 0 32 32H192V288a32 32 0 0 1 1.6-10.1L207.1 237.4 150.2 66.6A151.5 151.5 0 0 0 224 86.2a151.6 151.6 0 0 0 73.8-19.7L224 288V512H416a32 32 0 0 0 32-32V275.4A64 64 0 0 0 437.3 239.9zM131.3 371.3l-48 48a16 16 0 0 1 -22.6-22.6l48-48a16 16 0 0 1 22.6 22.6zm256 48a16 16 0 0 1 -22.6 0l-48-48a16 16 0 0 1 22.6-22.6l48 48A16 16 0 0 1 387.3 419.3z"/></svg>