<svg viewBox="0 0 23 20" fill="none" xmlns="http://www.w3.org/2000/svg">
<path d="M11.5009 1.93331C11.9813 1.93417 12.4496 1.78278 12.8386 1.50088C13.2276 1.21898 13.5172 0.821071 13.6659 0.364288C12.2434 0.711247 10.7584 0.711247 9.33594 0.364288C9.48466 0.821071 9.7743 1.21898 10.1633 1.50088C10.5523 1.78278 11.0206 1.93417 11.5009 1.93331V1.93331Z" fill="white"/>
<path d="M22.9688 3.08287C22.9452 3.01674 22.9087 2.95599 22.8613 2.90419C22.8139 2.85239 22.7567 2.81057 22.6929 2.7812L18.3096 0.75784C17.3807 0.443163 16.4311 0.193322 15.4677 0.0101165C15.4347 0.00352201 15.4011 0.000134278 15.3674 0C15.25 -1.72498e-06 15.1361 0.0401226 15.0446 0.113722C14.9531 0.187321 14.8895 0.289976 14.8643 0.404673C14.6936 1.16983 14.2672 1.85395 13.6554 2.34424C13.0437 2.83452 12.2831 3.10169 11.4991 3.10169C10.7151 3.10169 9.95457 2.83452 9.34281 2.34424C8.73106 1.85395 8.30465 1.16983 8.1339 0.404673C8.10858 0.290055 8.04494 0.187495 7.95348 0.113923C7.86202 0.0403519 7.7482 0.000166489 7.63082 0C7.59716 0.000134278 7.56358 0.00352201 7.53057 0.0101165C6.56686 0.193533 5.61699 0.44337 4.68775 0.75784L0.305334 2.7812C0.241218 2.81003 0.183672 2.85167 0.136225 2.90354C0.0887789 2.95542 0.0524339 3.01644 0.029421 3.08287C0.00604544 3.14877 -0.00356654 3.21876 0.00117916 3.28852C0.00592486 3.35828 0.0249274 3.42633 0.0570123 3.48846L1.96541 7.24823C2.01999 7.35691 2.11114 7.44287 2.22284 7.49098C2.33454 7.53909 2.45963 7.54627 2.5761 7.51127L4.69143 6.88494V19.4804C4.69167 19.6183 4.74662 19.7504 4.84422 19.8479C4.94182 19.9453 5.07408 20 5.21198 20H17.7927C17.9296 19.9985 18.0605 19.9432 18.1569 19.8459C18.2533 19.7487 18.3075 19.6173 18.3077 19.4804V6.88035L20.4231 7.50667C20.5395 7.54168 20.6646 7.53449 20.7763 7.48638C20.888 7.43827 20.9792 7.35231 21.0337 7.24363L22.9375 3.48754C22.9695 3.4256 22.9888 3.35788 22.9942 3.28837C22.9995 3.21886 22.9909 3.14898 22.9688 3.08287Z" fill="white"/>
</svg>